<svg width="27" height="27" viewBox="0 0 27 27" fill="none" xmlns="http://www.w3.org/2000/svg">
<path d="M10.833 7.45752V4.45752C10.833 3.66187 11.114 2.89881 11.6141 2.3362C12.1142 1.77359 12.7924 1.45752 13.4997 1.45752H22.833C23.5403 1.45752 24.2185 1.77359 24.7186 2.3362C25.2187 2.89881 25.4997 3.66187 25.4997 4.45752V22.4575C25.4997 23.2532 25.2187 24.0162 24.7186 24.5788C24.2185 25.1414 23.5403 25.4575 22.833 25.4575H13.4997C12.7924 25.4575 12.1142 25.1414 11.6141 24.5788C11.114 24.0162 10.833 23.2532 10.833 22.4575V19.4575" stroke="black" stroke-width="2" stroke-linecap="round" stroke-linejoin="round"/>
<path d="M17.5 13.4575H1.5M1.5 13.4575L5.5 8.95752M1.5 13.4575L5.5 17.9575" stroke="black" stroke-width="2" stroke-linecap="round" stroke-linejoin="round"/>
</svg>
