<svg width="53" height="63" viewBox="0 0 53 63" fill="none" xmlns="http://www.w3.org/2000/svg">
<g id="&#240;&#159;&#166;&#134; icon &#34;Microsoft Excel&#34;">
<path id="Vector" d="M46.8426 33.6165L38.6076 33.6434L38.589 28.5293L46.8241 28.5024L46.8426 33.6165ZM46.8532 36.5388L38.6182 36.5658L38.6367 41.6799L46.8718 41.653L46.8532 36.5388ZM46.7658 12.4294L38.5308 12.4563L38.5493 17.5705L46.7844 17.5435L46.7658 12.4294ZM46.795 20.4659L38.5599 20.4928L38.5784 25.6069L46.8135 25.58L46.795 20.4659ZM46.8824 44.5753L38.6473 44.6022L38.6659 49.7164L46.9009 49.6894L46.8824 44.5753ZM52.607 54.6388C52.3772 56.1592 50.9068 56.2006 49.9247 56.2549L31.6311 56.3148L31.6549 62.8901L28.0021 62.902L1.05817 57.1454L0.87278 6.01144L27.9331 0.0708452L31.4271 0.0594169L31.4482 5.88225L49.1124 5.82443C50.1067 5.87232 51.2005 5.78108 52.0678 6.51614C52.6776 7.59543 52.6238 8.96913 52.6695 10.211L52.7838 48.2455C52.7621 50.3716 52.9582 52.5409 52.607 54.6388ZM22.5781 43.274C20.9398 39.188 19.2722 35.1313 17.6397 31.0453C19.2252 27.0584 20.7872 23.0569 22.3432 19.0554C21.0083 19.1402 19.6734 19.2468 18.3444 19.3681C17.3612 22.374 16.213 25.3002 15.4478 28.4077C14.7137 25.4804 13.7447 22.6635 12.8579 19.8098C11.5641 19.9017 10.2704 20.0009 8.97666 20.1001C10.3549 23.8362 11.8212 27.521 13.1583 31.2792C11.6128 34.9372 10.1674 38.6461 8.66901 42.3259C9.95745 42.3874 11.2459 42.4489 12.5342 42.4666C13.4412 39.5559 14.5722 36.754 15.3615 33.7852C16.0906 36.9682 17.3189 39.9085 18.3299 42.9518C19.748 43.0714 21.1601 43.1763 22.5781 43.274ZM49.8607 9.29184L31.4608 9.35202L31.4722 12.4794L36.1779 12.464L36.1964 17.5782L31.4907 17.5936L31.5013 20.5159L36.207 20.5005L36.2256 25.6146L31.5198 25.63L31.5304 28.5524L36.2362 28.537L36.2547 33.6511L31.549 33.6665L31.5596 36.5889L36.2653 36.5735L36.2839 41.6876L31.5781 41.703L31.5887 44.6253L36.2944 44.6099L36.313 49.7241L31.6072 49.7395L31.6195 53.1181L50.0193 53.0579L49.8607 9.29184Z" fill="white" fill-opacity="0.8"/>
</g>
</svg>
