<svg width="61" height="65" viewBox="0 0 61 65" fill="none" xmlns="http://www.w3.org/2000/svg">
<g clip-path="url(#clip0_69_2132)">
<path d="M35.8943 5.41504H15.8749C14.5476 5.41504 13.2746 5.98555 12.336 7.00106C11.3974 8.01657 10.8701 9.39389 10.8701 10.83V54.15C10.8701 55.5862 11.3974 56.9635 12.336 57.979C13.2746 58.9945 14.5476 59.565 15.8749 59.565H45.9039C47.2313 59.565 48.5043 58.9945 49.4429 57.979C50.3815 56.9635 50.9088 55.5862 50.9088 54.15V21.66L35.8943 5.41504Z" stroke="white" stroke-width="2" stroke-linecap="round" stroke-linejoin="round"/>
<path d="M40.8992 35.1975H20.8799" stroke="white" stroke-width="2" stroke-linecap="round" stroke-linejoin="round"/>
<path d="M40.8992 46.0276H20.8799" stroke="white" stroke-width="2" stroke-linecap="round" stroke-linejoin="round"/>
<path d="M25.8847 24.3674H23.3823H20.8799" stroke="white" stroke-width="2" stroke-linecap="round" stroke-linejoin="round"/>
<rect x="7.18018" y="32" width="28.8914" height="18" fill="#D9D9D9"/>
<path d="M15.2158 43.7056H12.8608V42.2202H15.2158C15.5798 42.2202 15.876 42.161 16.1045 42.0425C16.333 41.9198 16.5002 41.7505 16.606 41.5347C16.7118 41.3188 16.7646 41.0755 16.7646 40.8047C16.7646 40.5296 16.7118 40.2736 16.606 40.0366C16.5002 39.7996 16.333 39.6092 16.1045 39.4653C15.876 39.3215 15.5798 39.2495 15.2158 39.2495H13.521V47H11.6167V37.7578H15.2158C15.9395 37.7578 16.5594 37.889 17.0757 38.1514C17.5962 38.4095 17.994 38.7671 18.269 39.2241C18.5441 39.6812 18.6816 40.2038 18.6816 40.792C18.6816 41.3887 18.5441 41.9049 18.269 42.3408C17.994 42.7767 17.5962 43.1131 17.0757 43.3501C16.5594 43.5871 15.9395 43.7056 15.2158 43.7056ZM22.573 47H20.5608L20.5735 45.5146H22.573C23.0724 45.5146 23.4934 45.4025 23.8362 45.1782C24.179 44.9497 24.4371 44.6175 24.6106 44.1816C24.7883 43.7458 24.8772 43.2189 24.8772 42.6011V42.1504C24.8772 41.6764 24.8264 41.2596 24.7249 40.8999C24.6275 40.5402 24.4815 40.2376 24.2869 39.9922C24.0922 39.7467 23.8531 39.5627 23.5696 39.4399C23.2861 39.313 22.9602 39.2495 22.5921 39.2495H20.5227V37.7578H22.5921C23.2099 37.7578 23.7748 37.8636 24.2869 38.0752C24.8032 38.2826 25.2496 38.5809 25.6262 38.9702C26.0029 39.3595 26.2927 39.825 26.4959 40.3667C26.7032 40.9041 26.8069 41.5029 26.8069 42.1631V42.6011C26.8069 43.257 26.7032 43.8558 26.4959 44.3975C26.2927 44.9391 26.0029 45.4046 25.6262 45.7939C25.2538 46.179 24.8074 46.4774 24.2869 46.689C23.7706 46.8963 23.1993 47 22.573 47ZM21.6399 37.7578V47H19.7356V37.7578H21.6399ZM13.521 52.7578V62H11.6167V52.7578H13.521ZM17.2026 56.7061V58.1914H13.0005V56.7061H17.2026ZM17.647 52.7578V54.2495H13.0005V52.7578H17.647Z" fill="#524ECA"/>
</g>
<defs>
<clipPath id="clip0_69_2132">
<rect width="60.058" height="64.98" fill="white" transform="translate(0.860352)"/>
</clipPath>
</defs>
</svg>
