<svg width="97" height="21" viewBox="0 0 97 21" fill="none" xmlns="http://www.w3.org/2000/svg">
<path d="M9.54894 3.9102C9.8483 2.98889 11.1517 2.98889 11.4511 3.9102L12.5206 7.202C12.6545 7.61402 13.0385 7.89298 13.4717 7.89298H16.9329C17.9016 7.89298 18.3044 9.1326 17.5207 9.702L14.7205 11.7364C14.37 11.9911 14.2234 12.4425 14.3572 12.8545L15.4268 16.1463C15.7261 17.0676 14.6717 17.8337 13.888 17.2643L11.0878 15.2299C10.7373 14.9752 10.2627 14.9752 9.91221 15.2299L7.11204 17.2643C6.32833 17.8337 5.27385 17.0676 5.5732 16.1463L6.64277 12.8545C6.77665 12.4425 6.62999 11.9911 6.2795 11.7364L3.47933 9.702C2.69562 9.1326 3.09839 7.89298 4.06712 7.89298H7.52832C7.96154 7.89298 8.3455 7.61402 8.47937 7.202L9.54894 3.9102Z" fill="#DDBF1E"/>
<path d="M28.5489 3.9102C28.8483 2.98889 30.1517 2.98889 30.4511 3.9102L31.5206 7.202C31.6545 7.61402 32.0385 7.89298 32.4717 7.89298H35.9329C36.9016 7.89298 37.3044 9.1326 36.5207 9.702L33.7205 11.7364C33.37 11.9911 33.2234 12.4425 33.3572 12.8545L34.4268 16.1463C34.7261 17.0676 33.6717 17.8337 32.888 17.2643L30.0878 15.2299C29.7373 14.9752 29.2627 14.9752 28.9122 15.2299L26.112 17.2643C25.3283 17.8337 24.2739 17.0676 24.5732 16.1463L25.6428 12.8545C25.7766 12.4425 25.63 11.9911 25.2795 11.7364L22.4793 9.702C21.6956 9.1326 22.0984 7.89298 23.0671 7.89298H26.5283C26.9615 7.89298 27.3455 7.61402 27.4794 7.202L28.5489 3.9102Z" fill="#DDBF1E"/>
<path d="M47.5489 3.9102C47.8483 2.98889 49.1517 2.98889 49.4511 3.9102L50.5206 7.202C50.6545 7.61402 51.0385 7.89298 51.4717 7.89298H54.9329C55.9016 7.89298 56.3044 9.1326 55.5207 9.702L52.7205 11.7364C52.37 11.9911 52.2234 12.4425 52.3572 12.8545L53.4268 16.1463C53.7261 17.0676 52.6717 17.8337 51.888 17.2643L49.0878 15.2299C48.7373 14.9752 48.2627 14.9752 47.9122 15.2299L45.112 17.2643C44.3283 17.8337 43.2739 17.0676 43.5732 16.1463L44.6428 12.8545C44.7766 12.4425 44.63 11.9911 44.2795 11.7364L41.4793 9.702C40.6956 9.1326 41.0984 7.89298 42.0671 7.89298H45.5283C45.9615 7.89298 46.3455 7.61402 46.4794 7.202L47.5489 3.9102Z" fill="#DDBF1E"/>
<path d="M66.5489 3.9102C66.8483 2.98889 68.1517 2.98889 68.4511 3.9102L69.5206 7.202C69.6545 7.61402 70.0385 7.89298 70.4717 7.89298H73.9329C74.9016 7.89298 75.3044 9.1326 74.5207 9.702L71.7205 11.7364C71.37 11.9911 71.2234 12.4425 71.3572 12.8545L72.4268 16.1463C72.7261 17.0676 71.6717 17.8337 70.888 17.2643L68.0878 15.2299C67.7373 14.9752 67.2627 14.9752 66.9122 15.2299L64.112 17.2643C63.3283 17.8337 62.2739 17.0676 62.5732 16.1463L63.6428 12.8545C63.7766 12.4425 63.63 11.9911 63.2795 11.7364L60.4793 9.702C59.6956 9.1326 60.0984 7.89298 61.0671 7.89298H64.5283C64.9615 7.89298 65.3455 7.61402 65.4794 7.202L66.5489 3.9102Z" fill="#DDBF1E"/>
<path d="M85.5489 3.9102C85.8483 2.98889 87.1517 2.98889 87.4511 3.9102L88.5206 7.202C88.6545 7.61402 89.0385 7.89298 89.4717 7.89298H92.9329C93.9016 7.89298 94.3044 9.1326 93.5207 9.702L90.7205 11.7364C90.37 11.9911 90.2234 12.4425 90.3572 12.8545L91.4268 16.1463C91.7261 17.0676 90.6717 17.8337 89.888 17.2643L87.0878 15.2299C86.7373 14.9752 86.2627 14.9752 85.9122 15.2299L83.112 17.2643C82.3283 17.8337 81.2739 17.0676 81.5732 16.1463L82.6428 12.8545C82.7766 12.4425 82.63 11.9911 82.2795 11.7364L79.4793 9.702C78.6956 9.1326 79.0984 7.89298 80.0671 7.89298H83.5283C83.9615 7.89298 84.3455 7.61402 84.4794 7.202L85.5489 3.9102Z" fill="#D9D9D9"/>
</svg>
