<svg width="17" height="18" viewBox="0 0 17 18" fill="none" xmlns="http://www.w3.org/2000/svg">
<path d="M13.3592 12.6808L16.9283 16.2492L15.7492 17.4283L12.1808 13.8592C10.8531 14.9235 9.20167 15.5024 7.5 15.5C3.36 15.5 0 12.14 0 8C0 3.86 3.36 0.5 7.5 0.5C11.64 0.5 15 3.86 15 8C15.0024 9.70167 14.4235 11.3531 13.3592 12.6808ZM11.6875 12.0625C12.7451 10.9749 13.3357 9.51702 13.3333 8C13.3333 4.77667 10.7225 2.16667 7.5 2.16667C4.27667 2.16667 1.66667 4.77667 1.66667 8C1.66667 11.2225 4.27667 13.8333 7.5 13.8333C9.01702 13.8357 10.4749 13.2451 11.5625 12.1875L11.6875 12.0625Z" fill="#919396"/>
</svg>
