<svg width="27" height="28" viewBox="0 0 27 28" fill="none" xmlns="http://www.w3.org/2000/svg">
<g clip-path="url(#clip0_251_1100)">
<path d="M24.1279 15.9979C23.9321 15.779 23.8241 15.4975 23.8241 15.2061C23.8241 14.9146 23.9321 14.6331 24.1279 14.4142L25.6914 12.6864C25.8637 12.4976 25.9707 12.2601 25.997 12.0079C26.0233 11.7557 25.9677 11.5018 25.838 11.2826L23.3951 7.13115C23.2667 6.91221 23.0713 6.73866 22.8366 6.63524C22.6019 6.53183 22.34 6.50383 22.0881 6.55523L19.7918 7.01117C19.4996 7.07047 19.1954 7.02267 18.9367 6.87679C18.6779 6.7309 18.4824 6.49702 18.3872 6.21928L17.6421 4.02358C17.5601 3.78526 17.404 3.57827 17.1958 3.43187C16.9876 3.28546 16.7378 3.20704 16.4817 3.20769H11.5959C11.3296 3.19403 11.066 3.26639 10.8454 3.41372C10.6249 3.56104 10.4595 3.77523 10.3745 4.02358L9.69047 6.21928C9.5952 6.49702 9.39973 6.7309 9.14096 6.87679C8.88218 7.02267 8.578 7.07047 8.28581 7.01117L5.92842 6.55523C5.68969 6.52209 5.44631 6.5591 5.22896 6.66158C5.0116 6.76407 4.82998 6.92745 4.70697 7.13115L2.26408 11.2826C2.13114 11.4993 2.07137 11.7518 2.09331 12.004C2.11524 12.2561 2.21777 12.495 2.38623 12.6864L3.93746 14.4142C4.13328 14.6331 4.24128 14.9146 4.24128 15.2061C4.24128 15.4975 4.13328 15.779 3.93746 15.9979L2.38623 17.7257C2.21777 17.9172 2.11524 18.156 2.09331 18.4081C2.07137 18.6603 2.13114 18.9128 2.26408 19.1295L4.70697 23.281C4.83535 23.4999 5.0308 23.6735 5.26548 23.7769C5.50016 23.8803 5.76209 23.9083 6.01392 23.8569L8.31024 23.4009C8.60243 23.3416 8.90661 23.3894 9.16539 23.5353C9.42416 23.6812 9.61963 23.9151 9.7149 24.1928L10.46 26.3885C10.545 26.6369 10.7104 26.8511 10.9309 26.9984C11.1515 27.1457 11.4151 27.2181 11.6814 27.2044H16.5672C16.8233 27.2051 17.0731 27.1266 17.2813 26.9802C17.4895 26.8338 17.6456 26.6268 17.7276 26.3885L18.4727 24.1928C18.5679 23.9151 18.7634 23.6812 19.0222 23.5353C19.2809 23.3894 19.5851 23.3416 19.8773 23.4009L22.1736 23.8569C22.4255 23.9083 22.6874 23.8803 22.9221 23.7769C23.1568 23.6735 23.3522 23.4999 23.4806 23.281L25.9235 19.1295C26.0532 18.9103 26.1088 18.6564 26.0825 18.4042C26.0562 18.152 25.9492 17.9145 25.7769 17.7257L24.1279 15.9979ZM22.308 17.6057L23.2851 18.6856L21.7217 21.3492L20.2804 21.0613C19.4007 20.8846 18.4856 21.0314 17.7088 21.4738C16.9319 21.9161 16.3475 22.6233 16.0664 23.4609L15.6023 24.8047H12.4754L12.0356 23.4369C11.7545 22.5993 11.1701 21.8921 10.3933 21.4498C9.61648 21.0074 8.70137 20.8606 7.82166 21.0373L6.38035 21.3252L4.79248 18.6736L5.76963 17.5937C6.37053 16.9338 6.70273 16.0795 6.70273 15.1941C6.70273 14.3087 6.37053 13.4543 5.76963 12.7944L4.79248 11.7145L6.35592 9.07489L7.79723 9.36285C8.67694 9.53949 9.59205 9.3927 10.3689 8.95034C11.1457 8.50799 11.7301 7.80085 12.0112 6.96318L12.4754 5.60736H15.6023L16.0664 6.97517C16.3475 7.81285 16.9319 8.51998 17.7088 8.96234C18.4856 9.4047 19.4007 9.55149 20.2804 9.37485L21.7217 9.08689L23.2851 11.7505L22.308 12.8304C21.7138 13.4888 21.3858 14.3382 21.3858 15.2181C21.3858 16.0979 21.7138 16.9473 22.308 17.6057ZM14.0388 10.4067C13.0725 10.4067 12.1279 10.6882 11.3244 11.2155C10.521 11.7429 9.89473 12.4925 9.52494 13.3694C9.15515 14.2464 9.05839 15.2114 9.24691 16.1424C9.43543 17.0733 9.90076 17.9285 10.584 18.5997C11.2673 19.2709 12.1379 19.728 13.0856 19.9132C14.0334 20.0984 15.0158 20.0033 15.9085 19.6401C16.8013 19.2768 17.5643 18.6617 18.1012 17.8724C18.638 17.0832 18.9246 16.1553 18.9246 15.2061C18.9246 13.9332 18.4098 12.7125 17.4936 11.8124C16.5773 10.9124 15.3346 10.4067 14.0388 10.4067ZM14.0388 17.6057C13.5557 17.6057 13.0833 17.465 12.6816 17.2013C12.2799 16.9376 11.9668 16.5629 11.7819 16.1244C11.597 15.6859 11.5486 15.2034 11.6429 14.7379C11.7371 14.2724 11.9698 13.8448 12.3114 13.5092C12.6531 13.1736 13.0884 12.9451 13.5622 12.8525C14.0361 12.7599 14.5273 12.8074 14.9737 12.989C15.42 13.1707 15.8016 13.4782 16.07 13.8729C16.3384 14.2675 16.4817 14.7314 16.4817 15.2061C16.4817 15.8425 16.2243 16.4529 15.7662 16.9029C15.3081 17.3529 14.6867 17.6057 14.0388 17.6057Z" fill="black"/>
</g>
<defs>
<clipPath id="clip0_251_1100">
<rect width="27" height="27" fill="white" transform="translate(0 0.95752)"/>
</clipPath>
</defs>
</svg>
