<svg width="53" height="55" viewBox="0 0 53 55" fill="none" xmlns="http://www.w3.org/2000/svg">
<g id="&#240;&#159;&#166;&#134; icon &#34;Microsoft Word&#34;">
<path id="Vector" d="M47.7192 5.62455L29.9547 6.32951L29.7021 1.53281L26.3907 1.66422L1.17119 7.48374L3.38075 49.4428L28.9565 53.2347L32.4175 53.0973L32.1659 48.3186L48.7896 47.6589C49.7284 47.5736 50.7791 47.61 51.5548 46.9544C52.1461 45.8554 51.9093 44.5189 51.9009 43.3055L50.0345 7.86395C50.0788 6.49227 48.9745 5.43654 47.7192 5.62455ZM21.178 35.8726C20.2807 36.431 18.8676 35.9403 17.7756 36.0677C16.83 32.1277 15.764 28.2165 14.895 24.2554C14.4511 28.1544 13.8115 32.0252 13.2722 35.904C12.2058 35.8862 11.1333 35.8566 10.0604 35.8211C8.86332 30.5812 7.50754 25.3837 6.37074 20.1294C7.31513 20.0438 8.26538 19.9641 9.21041 19.8905C9.9819 23.6873 10.83 27.4629 11.5298 31.2685C12.1041 27.3162 12.695 23.3633 13.2638 19.4112C14.3124 19.3035 15.362 19.2138 16.411 19.1121C17.3606 23.1301 18.3265 27.1414 19.3361 31.139C19.7427 26.953 20.2164 22.7764 20.6677 18.5947C21.773 18.5088 22.877 18.3989 23.9752 18.2832C23.0297 24.1428 22.2417 30.0443 21.178 35.8726ZM49.3376 44.7835L32.0159 45.4709L31.8176 41.7052L46.2152 41.1338L46.0889 38.7355L31.6913 39.3068L31.5334 36.3089L45.931 35.7375L45.8047 33.3392L31.4071 33.9105L31.2493 30.9126L45.6469 30.3412L45.5206 27.9429L31.123 28.5142L30.9651 25.5163L45.3627 24.945L45.2364 22.5466L30.8388 23.118L30.6809 20.12L45.0785 19.5487L44.9522 17.1503L30.5546 17.7217L30.3968 14.7237L44.7944 14.1524L44.6681 11.754L30.2705 12.3254L30.1037 9.15923L47.4255 8.47186L49.3376 44.7835Z" fill="white" fill-opacity="0.8"/>
</g>
</svg>
